<?xml version="1.0" standalone="no"?>
<!DOCTYPE svg PUBLIC "-//W3C//DTD SVG 20010904//EN"
 "http://www.w3.org/TR/2001/REC-SVG-20010904/DTD/svg10.dtd">
<svg version="1.0" xmlns="http://www.w3.org/2000/svg"
 width="452.000000pt" height="452.000000pt" viewBox="0 0 452.000000 452.000000"
 preserveAspectRatio="xMidYMid meet">
<metadata>
Created by potrace 1.14, written by Peter Selinger 2001-2017
</metadata>
<g transform="translate(0.000000,452.000000) scale(0.100000,-0.100000)"
fill="#000000" stroke="none">
<path d="M644 4499 c-11 -6 -28 -23 -37 -39 -16 -26 -17 -189 -17 -2202 0
-2044 1 -2174 18 -2194 9 -12 27 -27 39 -33 16 -8 441 -11 1540 -11 1672 0
1544 -5 1578 60 13 26 15 285 15 2182 -1 1800 -3 2158 -15 2185 -29 68 86 63
-1587 62 -996 0 -1520 -4 -1534 -10z m2858 -3357 l-2 -887 -1325 -2 -1325 -1
0 889 0 889 1328 0 1327 0 -3 -888z m-337 -952 c-3 -5 -12 -10 -18 -10 -7 0
-6 4 3 10 19 12 23 12 15 0z m455 -24 c0 -2 -7 -7 -16 -10 -8 -3 -12 -2 -9 4
6 10 25 14 25 6z"/>
</g>
</svg>
